<svg version="1.1" xmlns="http://www.w3.org/2000/svg" viewBox="0 0 217.45703125 235.375" width="217.45703125" height="235.375" class="excalidraw-svg">
  <!-- svg-source:excalidraw -->
  
  <defs>
    <style class="style-fonts">
      
    </style>
    
  </defs>
  <rect x="0" y="0" width="217.45703125" height="235.375" fill="#ffffff"/><g stroke-linecap="round" transform="translate(10 10) rotate(0 98.728515625 107.6875)"><path d="M113.14 1.87 C124.49 2.01, 137.63 7.68, 148.04 14.17 C158.44 20.67, 168.22 30.72, 175.59 40.84 C182.95 50.96, 188.59 62.68, 192.21 74.9 C195.83 87.13, 198.07 101.12, 197.31 114.2 C196.55 127.28, 192.77 141.58, 187.64 153.4 C182.51 165.22, 174.83 176.34, 166.51 185.12 C158.19 193.89, 148.43 200.91, 137.71 206.04 C126.99 211.18, 114.2 215.37, 102.19 215.92 C90.18 216.47, 76.86 213.95, 65.66 209.35 C54.46 204.76, 43.98 196.97, 34.98 188.36 C25.97 179.74, 17.42 168.93, 11.63 157.67 C5.83 146.41, 1.79 133.6, 0.22 120.79 C-1.35 107.98, -0.88 93.25, 2.19 80.81 C5.27 68.37, 11.6 56.74, 18.68 46.13 C25.75 35.53, 34.71 24.51, 44.66 17.18 C54.6 9.84, 66.31 4.58, 78.34 2.11 C90.36 -0.36, 109.9 2.06, 116.82 2.35 C123.73 2.65, 120.08 2.3, 119.82 3.9 M138.95 8.81 C150.24 12.39, 160.19 22.02, 168.52 31.25 C176.85 40.49, 184.06 52.68, 188.92 64.23 C193.77 75.77, 196.94 87.55, 197.67 100.52 C198.39 113.48, 196.89 129.34, 193.27 142.03 C189.65 154.71, 183.71 166.72, 175.94 176.63 C168.17 186.54, 157.07 195.12, 146.65 201.5 C136.24 207.88, 124.89 213.11, 113.45 214.92 C102.01 216.72, 89.47 215.52, 78.01 212.34 C66.55 209.16, 54.53 202.95, 44.68 195.83 C34.82 188.72, 25.63 179.93, 18.87 169.63 C12.1 159.33, 7.14 146.38, 4.1 134.03 C1.05 121.68, -0.66 108.32, 0.61 95.52 C1.87 82.72, 6.16 68.84, 11.7 57.25 C17.23 45.65, 24.71 34.59, 33.81 25.97 C42.91 17.34, 54.94 9.68, 66.32 5.47 C77.69 1.25, 90.19 0.19, 102.07 0.68 C113.94 1.17, 131.95 6.7, 137.56 8.42 C143.18 10.13, 136.49 9.07, 135.76 10.97" stroke="#1e1e1e" stroke-width="2" fill="none"/></g></svg>