<svg version="1.1" xmlns="http://www.w3.org/2000/svg" viewBox="0 0 267 258.7421875" width="267" height="258.7421875" class="excalidraw-svg">
  <!-- svg-source:excalidraw -->
  
  <defs>
    <style class="style-fonts">
      
    </style>
    
  </defs>
  <rect x="0" y="0" width="267" height="258.7421875" fill="#ffffff"/><g stroke-linecap="round" transform="translate(10 10) rotate(0 123.5 119.37109375)"><path d="M128.92 -0.33 C142.47 -1.85, 157 3.32, 170.02 8.59 C183.05 13.85, 196.68 22.18, 207.06 31.24 C217.44 40.3, 225.8 50.83, 232.32 62.93 C238.84 75.03, 244.14 90.34, 246.2 103.84 C248.25 117.34, 247.77 130.75, 244.66 143.92 C241.56 157.1, 235.07 171.34, 227.58 182.89 C220.09 194.43, 210.88 205.01, 199.73 213.2 C188.59 221.4, 174.07 227.89, 160.71 232.07 C147.35 236.24, 133.63 238.63, 119.58 238.25 C105.53 237.87, 89.55 234.74, 76.42 229.78 C63.29 224.82, 51.33 217.57, 40.8 208.46 C30.27 199.35, 19.75 187.24, 13.26 175.11 C6.78 162.98, 3.76 149.17, 1.89 135.67 C0.02 122.18, -0.85 107.35, 2.02 94.13 C4.9 80.92, 11.64 67.9, 19.14 56.36 C26.64 44.83, 36.04 33.5, 47.02 24.92 C58 16.33, 70.71 8.85, 85.02 4.87 C99.33 0.89, 124.15 1.32, 132.87 1.02 C141.6 0.73, 137.65 1.34, 137.37 3.09 M163.42 7.29 C176.82 9.98, 191.36 19.57, 202.42 28.24 C213.49 36.92, 222.77 47.63, 229.81 59.34 C236.86 71.06, 242.19 85.34, 244.7 98.53 C247.22 111.71, 247.22 125, 244.91 138.43 C242.59 151.87, 237.55 167.31, 230.8 179.12 C224.06 190.93, 215.08 200.65, 204.42 209.3 C193.75 217.95, 179.91 226.27, 166.83 231.03 C153.75 235.8, 140.16 237.5, 125.92 237.87 C111.67 238.24, 94.99 237.68, 81.38 233.26 C67.78 228.84, 55.18 220.07, 44.29 211.35 C33.39 202.63, 23.09 192.85, 16.02 180.96 C8.96 169.07, 4.18 153.65, 1.89 140 C-0.4 126.36, 0.16 112.15, 2.28 99.11 C4.41 86.06, 7.85 73.3, 14.61 61.73 C21.38 50.15, 32.15 38.76, 42.87 29.67 C53.6 20.57, 65.83 12.01, 78.98 7.16 C92.13 2.3, 107.49 0.46, 121.77 0.52 C136.04 0.58, 157.5 6.23, 164.64 7.53 C171.78 8.82, 165.28 6.72, 164.59 8.3" stroke="#1e1e1e" stroke-width="2" fill="none"/></g><g stroke-linecap="round" transform="translate(105.6328125 54.80859375) rotate(0 27.61328125 31.3359375)"><path d="M35 8 C39.03 12.95, 43.85 20.67, 48.23 24 M35 8 C39.31 14.11, 43.22 18, 48.23 24 M48.23 24 C56.95 30.88, 54.86 30.42, 48.23 40 M48.23 24 C56.47 31.66, 53.16 32.96, 48.23 40 M48.23 40 C44.51 44.92, 40.17 46.71, 35 54.67 M48.23 40 C45.18 44.61, 40.6 48.08, 35 54.67 M35 54.67 C26.61 63.36, 28.88 61.96, 21 54.67 M35 54.67 C26.25 60.53, 27.68 62.53, 21 54.67 M21 54.67 C17.45 50.87, 13.28 46.59, 7 40 M21 54.67 C18.08 51.01, 14.98 46.79, 7 40 M7 40 C-0.99 31.19, 1.81 30.39, 7 24 M7 40 C1.39 34.05, -1.84 30.66, 7 24 M7 24 C11.28 19.62, 15.13 14.14, 21 8 M7 24 C10.68 19.68, 14.28 17.98, 21 8 M21 8 C27.6 -0.54, 27.19 1.71, 35 8 M21 8 C27.64 1.08, 30.12 2.06, 35 8" stroke="#1e1e1e" stroke-width="2" fill="none"/></g></svg>