<svg version="1.1" xmlns="http://www.w3.org/2000/svg" viewBox="0 0 329.859375 219.83984375" width="329.859375" height="219.83984375" class="excalidraw-svg">
  <!-- svg-source:excalidraw -->
  
  <defs>
    <style class="style-fonts">
      
    </style>
    
  </defs>
  <rect x="0" y="0" width="329.859375" height="219.83984375" fill="#ffffff"/><g stroke-linecap="round" transform="translate(10 10) rotate(0 154.9296875 99.919921875)"><path d="M171.01 1.31 C187.18 0.57, 205.69 4.15, 220.91 8.63 C236.13 13.11, 250.43 20.74, 262.31 28.22 C274.18 35.7, 284.67 43.77, 292.17 53.5 C299.68 63.22, 304.97 75.57, 307.33 86.56 C309.69 97.56, 309.19 109.14, 306.33 119.49 C303.46 129.83, 298.25 139.54, 290.15 148.63 C282.04 157.72, 270.37 166.85, 257.72 174.03 C245.08 181.21, 229.83 187.55, 214.29 191.7 C198.76 195.85, 181.15 198.13, 164.51 198.91 C147.88 199.69, 130.79 198.98, 114.5 196.37 C98.21 193.76, 80.82 189.46, 66.78 183.26 C52.73 177.07, 40.17 167.91, 30.21 159.2 C20.24 150.48, 11.9 141.12, 6.99 130.98 C2.07 120.84, 0.27 109.42, 0.74 98.36 C1.2 87.3, 3.97 74.99, 9.76 64.62 C15.56 54.26, 25.1 44.42, 35.51 36.17 C45.91 27.92, 58.17 20.67, 72.19 15.14 C86.21 9.62, 100.4 5.04, 119.64 3.03 C138.88 1.02, 173.66 2.37, 187.62 3.07 C201.57 3.77, 203.95 5.73, 203.35 7.24 M172.74 -0.62 C189.08 -0.94, 206.6 5.83, 221.62 10.74 C236.65 15.65, 250.96 21.52, 262.87 28.84 C274.78 36.16, 285.5 44.92, 293.08 54.67 C300.66 64.43, 305.94 76.85, 308.35 87.37 C310.76 97.9, 310.94 107.26, 307.56 117.84 C304.17 128.43, 296.37 141.37, 288.02 150.89 C279.66 160.41, 269.74 167.89, 257.41 174.94 C245.08 181.99, 229.54 189.15, 214.03 193.18 C198.51 197.22, 181.35 198.72, 164.33 199.15 C147.32 199.58, 128.34 198.51, 111.93 195.76 C95.53 193.01, 79.61 188.61, 65.91 182.64 C52.21 176.67, 39.61 168.64, 29.72 159.94 C19.83 151.23, 11.44 140.9, 6.56 130.41 C1.68 119.92, -0.11 107.94, 0.43 96.99 C0.96 86.04, 4.03 75.02, 9.78 64.7 C15.53 54.39, 24.05 43.52, 34.93 35.09 C45.82 26.67, 60.72 19.38, 75.09 14.16 C89.45 8.95, 105.13 6.02, 121.11 3.8 C137.08 1.58, 162.76 1.01, 170.93 0.84 C179.09 0.67, 170.29 1.43, 170.11 2.8" stroke="#1e1e1e" stroke-width="2" fill="none"/></g></svg>